<svg width="21" height="21" viewBox="0 0 21 21" fill="none" xmlns="http://www.w3.org/2000/svg">
<g clip-path="url(#clip0)">
<path d="M10.5384 11.5192V20.0714C10.5384 20.5842 10.9249 21 11.4133 21C11.9018 21 12.2883 20.5842 12.2883 20.0714V11.5192H19.0771C19.5655 11.5192 19.9611 11.0666 19.9611 10.5538V5.25028C19.9611 3.86449 19.4372 2.53881 18.4855 1.54778C17.5374 0.560424 16.2884 0 14.9683 0H5.87012C3.13719 0 0.913818 2.3776 0.913818 5.23416V10.5539C0.913818 11.0667 1.30978 11.5193 1.7982 11.5193H10.5384V11.5192ZM2.66372 9.61114V5.23416C2.66372 3.40158 4.10318 1.91072 5.86076 1.91072C7.61833 1.91072 9.05766 3.40886 9.05766 5.25028V9.61114H2.66372ZM18.2112 9.61114H10.875V5.25028C10.875 3.97402 10.3844 2.75616 9.65375 1.83746H14.9684C16.7162 1.83746 18.2112 3.42908 18.2112 5.25028V9.61114Z" fill="#7F8592"/>
<path d="M5.8271 4.12292C5.33868 4.12292 4.95215 4.53868 4.95215 5.05152V5.1259C4.95215 5.63874 5.33868 6.0545 5.8271 6.0545C6.31552 6.0545 6.70205 5.63874 6.70205 5.1259V5.05152C6.70205 4.53861 6.31552 4.12292 5.8271 4.12292Z" fill="#7F8592"/>
</g>
<defs>
<clipPath id="clip0">
<rect width="20" height="21" fill="white" transform="translate(0.4375)"/>
</clipPath>
</defs>
</svg>
