<svg width="23" height="20" viewBox="0 0 23 20" fill="none" xmlns="http://www.w3.org/2000/svg">
<g clip-path="url(#clip0)">
<path d="M1.16585 3.6074C4.13997 5.86347 9.35863 9.83259 10.8925 11.0702C11.0984 11.2372 11.3192 11.3221 11.5485 11.3221C11.7773 11.3221 11.9978 11.238 12.2032 11.0718C13.7383 9.83297 18.957 5.86347 21.9312 3.6074C22.1163 3.46721 22.1446 3.22079 21.9947 3.0494C21.6481 2.65335 21.1314 2.42627 20.5776 2.42627H2.51933C1.96561 2.42627 1.44887 2.65335 1.10236 3.04944C0.95245 3.22079 0.98068 3.46721 1.16585 3.6074Z" fill="#7F8592"/>
<path d="M22.1215 4.83036C21.9615 4.76364 21.7732 4.78692 21.6401 4.88882C18.3418 7.39324 14.1324 10.6034 12.8079 11.6724C12.0646 12.2734 11.033 12.2734 10.2879 11.6716C8.8762 10.5323 4.14909 6.93279 1.45668 4.88878C1.32264 4.78688 1.13395 4.7644 0.975239 4.83033C0.815677 4.89671 0.713379 5.03966 0.713379 5.19722V15.3666C0.713379 16.2587 1.52325 16.9841 2.51923 16.9841H20.5776C21.5735 16.9841 22.3834 16.2587 22.3834 15.3666V5.19722C22.3834 5.03966 22.2811 4.89633 22.1215 4.83036Z" fill="#7F8592"/>
</g>
<defs>
<clipPath id="clip0">
<rect width="21.67" height="19.41" fill="white" transform="translate(0.713379)"/>
</clipPath>
</defs>
</svg>
