<svg width="16" height="23" viewBox="0 0 16 23" fill="none" xmlns="http://www.w3.org/2000/svg">
<path d="M13.4695 0H2.53025C1.48331 0 0.638184 0.739013 0.638184 1.64876V20.9868C0.638184 21.8957 1.48331 22.6339 2.53025 22.6339H13.4695C14.5146 22.6339 15.3616 21.8957 15.3616 20.9868V1.64876C15.3616 0.739013 14.5146 0 13.4695 0ZM5.3006 1.0013H10.7011C10.8375 1.0013 10.9484 1.17863 10.9484 1.39802C10.9484 1.61742 10.8375 1.79557 10.7011 1.79557H5.3006C5.16322 1.79557 5.05426 1.61742 5.05426 1.39802C5.05426 1.17863 5.16322 1.0013 5.3006 1.0013ZM8.00084 21.0066C7.33478 21.0066 6.79284 20.5348 6.79284 19.9542C6.79284 19.3735 7.33478 18.9034 8.00084 18.9034C8.665 18.9034 9.20695 19.3735 9.20695 19.9542C9.20695 20.5348 8.665 21.0066 8.00084 21.0066ZM13.9442 17.4031H2.05652V2.78202H13.9442V17.4031Z" fill="#7F8592"/>
</svg>
