<svg width="25" height="30" viewBox="0 0 25 30" fill="none" xmlns="http://www.w3.org/2000/svg">
<path d="M23.4076 5.22253H1.59238C0.714355 5.22253 0 6.07976 0 7.13339V22.8668C0 23.9204 0.714355 24.7776 1.59238 24.7776H23.4076C24.2856 24.7776 25 23.9204 25 22.8668V7.13339C25 6.07976 24.2856 5.22253 23.4076 5.22253ZM23.9384 22.8667C23.9384 23.2179 23.7003 23.5037 23.4076 23.5037H1.59238C1.29971 23.5037 1.06157 23.2179 1.06157 22.8667V7.13334C1.06157 6.78212 1.29971 6.49636 1.59238 6.49636H23.4076C23.7003 6.49636 23.9384 6.78212 23.9384 7.13334V22.8667Z" fill="#7F8592"/>
<path d="M20.6106 10.8108H14.9141C14.6209 10.8108 14.3833 11.096 14.3833 11.4478C14.3833 11.7996 14.6209 12.0847 14.9141 12.0847H20.6106C20.9038 12.0847 21.1415 11.7996 21.1415 11.4478C21.1415 11.096 20.9038 10.8108 20.6106 10.8108Z" fill="#7F8592"/>
<path d="M20.6106 14.363H14.9141C14.6209 14.363 14.3833 14.6482 14.3833 15C14.3833 15.3517 14.6209 15.637 14.9141 15.637H20.6106C20.9038 15.637 21.1415 15.3517 21.1415 15C21.1415 14.6482 20.9038 14.363 20.6106 14.363Z" fill="#7F8592"/>
<path d="M20.6106 17.9152H14.9141C14.6209 17.9152 14.3833 18.2004 14.3833 18.5521C14.3833 18.9039 14.6209 19.1891 14.9141 19.1891H20.6106C20.9038 19.1891 21.1415 18.9039 21.1415 18.5521C21.1415 18.2004 20.9038 17.9152 20.6106 17.9152Z" fill="#7F8592"/>
<path d="M9.8021 17.0065C9.79136 17.0056 8.81987 17.0542 8.55747 15.793C8.91201 15.4581 9.20952 14.9928 9.42212 14.4371C9.43784 14.439 9.45356 14.4413 9.46919 14.4413C9.61392 14.4413 9.75405 14.3622 9.84614 14.2202C10.2919 13.5332 10.5237 12.6412 10.4989 11.7084C10.4473 9.77459 9.32617 8.2501 7.94458 8.23217C7.90679 8.23035 7.87314 8.23152 7.84595 8.23269C7.84531 8.23269 7.84468 8.23275 7.84399 8.23275C7.50879 8.05844 7.15566 7.97676 6.79175 7.99111C6.01382 8.02094 5.30005 8.48336 4.78208 9.29324C4.28574 10.0692 4.02788 11.0789 4.05605 12.1366C4.06084 12.3156 4.07266 12.4806 4.0916 12.6369C4.14302 13.0872 4.24653 13.519 4.39927 13.9199C4.47266 14.1126 4.62871 14.2411 4.80508 14.2538C4.85308 14.2575 4.9002 14.2516 4.94551 14.2385C5.16167 14.8814 5.48828 15.4165 5.8833 15.79C5.62612 17.0491 4.64893 17.0058 4.63823 17.0066C3.59385 17.0476 2.75464 18.0791 2.75464 19.3421V21.6633C2.75464 21.9799 2.96851 22.2365 3.23237 22.2365H11.2079C11.4718 22.2365 11.6856 21.9799 11.6856 21.6633V19.3421C11.6857 18.079 10.8464 17.0475 9.8021 17.0065ZM5.04409 12.529C5.04189 12.5115 5.03979 12.4939 5.03774 12.4762C5.02349 12.3583 5.01475 12.2351 5.01113 12.0997C4.98994 11.3062 5.17778 10.5575 5.54009 9.99121C5.88052 9.45889 6.33604 9.15555 6.82241 9.13686C6.83848 9.13621 7.22026 9.09994 7.54141 9.3277C7.60864 9.37539 7.69102 9.38963 7.7687 9.38734C7.77852 9.38705 7.92168 9.37838 7.92891 9.37844C8.78486 9.38518 9.50947 10.4468 9.54404 11.7449C9.54805 11.8936 9.54307 12.0406 9.52959 12.1843C9.21343 11.5331 8.7438 11.0288 8.18491 10.7468C8.0648 10.6863 7.92925 10.6872 7.80972 10.7494C7.69014 10.8116 7.59697 10.9298 7.55176 11.0764C7.51489 11.1961 7.47007 11.3127 7.41865 11.4231C7.29321 11.6923 7.03657 11.851 6.74893 11.8402C6.6917 11.8379 6.63389 11.8377 6.577 11.8399C6.29707 11.8507 6.02407 11.9147 5.76367 12.0312C5.50356 12.149 5.26182 12.3164 5.04409 12.529ZM5.70986 13.3611C5.83091 13.2538 5.96392 13.1744 6.09932 13.1048C6.34619 12.9777 6.67979 12.9847 6.71587 12.9862C7.33125 13.0113 7.89302 12.6657 8.20562 12.0771C8.44937 12.3012 8.65068 12.6031 8.79111 12.9608C8.64316 14.2473 7.97593 15.2261 7.2188 15.2261C6.54331 15.2261 5.93706 14.4594 5.70986 13.3611ZM6.75962 16.308C6.90913 16.3503 7.0626 16.3726 7.2188 16.3726C7.37646 16.3726 7.53086 16.3502 7.68086 16.3082C7.83481 16.8981 8.1582 17.3988 8.58193 17.7288C8.37812 18.4018 7.83892 18.8736 7.22021 18.8736C6.60151 18.8736 6.0623 18.4018 5.85845 17.7287C6.28228 17.3986 6.60566 16.898 6.75962 16.308ZM3.71016 21.0899V19.3421C3.71016 18.6853 4.15542 18.151 4.70273 18.151C4.71367 18.151 4.88794 18.139 4.9626 18.127C5.30273 19.2404 6.19585 20.0202 7.22017 20.0202C8.24448 20.0202 9.1376 19.2404 9.47773 18.127C9.55249 18.139 9.72661 18.151 9.73755 18.151C10.2849 18.151 10.7301 18.6854 10.7301 19.3421V21.0899H3.71016Z" fill="#7F8592"/>
</svg>
