<svg width="17" height="20" viewBox="0 0 17 20" fill="none" xmlns="http://www.w3.org/2000/svg">
<g clip-path="url(#clip0)">
<path d="M16.5124 12.1736C16.2662 12.1736 16.0668 12.4083 16.0668 12.6978V17.3523C16.0659 18.2203 15.4681 18.9239 14.7301 18.9249H2.22785C1.48987 18.9239 0.892009 18.2203 0.891139 17.3523V3.69223C0.892009 2.82402 1.48987 2.12065 2.22785 2.11963H6.18402C6.43013 2.11963 6.62959 1.88497 6.62959 1.59543C6.62959 1.30589 6.43013 1.07123 6.18402 1.07123H2.22785C0.998006 1.07287 0.0013924 2.24535 0 3.69223V17.3523C0.0013924 18.7992 0.998006 19.9717 2.22785 19.9733H14.7301C15.9599 19.9717 16.9565 18.7992 16.9579 17.3523V12.698C16.9579 12.4085 16.7585 12.1736 16.5124 12.1736Z" fill="#979CA7"/>
<path d="M6.96716 9.41517L13.473 1.76105L15.5712 4.22949L9.06534 11.8836L6.96716 9.41517Z" fill="#979CA7"/>
<path d="M5.90576 13.1325L8.22447 12.3769L6.54801 10.4046L5.90576 13.1325Z" fill="#979CA7"/>
<path d="M16.1514 0.463673C15.7161 -0.0472171 15.0114 -0.0472171 14.5761 0.463673L14.1035 1.01961L16.2017 3.48806L16.6742 2.93212C17.1087 2.42 17.1087 1.59091 16.6742 1.07879L16.1514 0.463673Z" fill="#979CA7"/>
</g>
<defs>
<clipPath id="clip0">
<rect width="17" height="20" fill="white"/>
</clipPath>
</defs>
</svg>
