<svg width="20" height="20" viewBox="0 0 20 20" fill="none" xmlns="http://www.w3.org/2000/svg">
<path fill-rule="evenodd" clip-rule="evenodd" d="M10 0C4.48583 0 0 4.48583 0 10C0 15.5142 4.48583 20 10 20C15.5142 20 20 15.5142 20 10C20 4.48583 15.5142 0 10 0ZM12.215 15.2367C11.6642 15.4533 9.75504 16.365 8.65504 15.3958C8.32671 15.1075 8.16337 14.7417 8.16337 14.2975C8.16337 13.4658 8.43671 12.7408 8.92921 11C9.01587 10.6708 9.12171 10.2442 9.12171 9.90583C9.12171 9.32166 8.90004 9.16666 8.29921 9.16666C8.00587 9.16666 7.68087 9.27083 7.38671 9.38083L7.54921 8.71499C8.20504 8.44833 9.02837 8.12333 9.73337 8.12333C10.7909 8.12333 11.5692 8.65083 11.5692 9.65416C11.5692 9.94333 11.5192 10.45 11.4142 10.8L10.8059 12.9517C10.68 13.3867 10.4525 14.3458 10.805 14.63C11.1517 14.9108 11.9725 14.7617 12.3775 14.5708L12.215 15.2367ZM11.21 6.66667C10.52 6.66667 9.95998 6.10667 9.95998 5.41667C9.95998 4.72667 10.52 4.16667 11.21 4.16667C11.9 4.16667 12.46 4.72667 12.46 5.41667C12.46 6.10667 11.9 6.66667 11.21 6.66667Z" fill="#7F8592"/>
</svg>
