<svg width="20" height="20" viewBox="0 0 20 20" fill="none" xmlns="http://www.w3.org/2000/svg">
<path fill-rule="evenodd" clip-rule="evenodd" d="M12.935 12.0592L10.99 13.9758L6.02415 9.00999L7.94082 7.06499C8.17789 6.82383 8.24571 6.46331 8.11248 6.15249L6.11665 1.49416C5.95358 1.11448 5.53691 0.911639 5.13748 1.01749L1.47082 1.98582C1.09348 2.08345 0.834224 2.42959 0.84665 2.81916C1.07985 7.08073 2.85177 11.1128 5.83332 14.1667C8.8881 17.1486 12.9215 18.9203 17.1842 19.1525C17.5737 19.1649 17.9199 18.9057 18.0175 18.5283L18.9858 14.8617C19.0917 14.4622 18.8888 14.0456 18.5092 13.8825L13.8508 11.8867C13.5389 11.7521 13.1766 11.8204 12.935 12.0592Z" fill="#7F8592"/>
</svg>
