<svg width="20" height="20" viewBox="0 0 20 20" fill="none" xmlns="http://www.w3.org/2000/svg">
<path fill-rule="evenodd" clip-rule="evenodd" d="M18.5723 7.40333L13.1254 6.61179L10.6923 1.67948C10.5484 1.4351 10.2859 1.28508 10.0023 1.28508C9.71867 1.28508 9.45621 1.4351 9.31229 1.67948L6.87459 6.61179L1.42767 7.40333C1.1379 7.44516 0.897003 7.64784 0.806236 7.92618C0.715468 8.20453 0.790573 8.51026 0.999978 8.71487L4.94229 12.5564L4.01229 17.9818C3.96284 18.2704 4.0815 18.562 4.31838 18.7341C4.55527 18.9061 4.86929 18.9288 5.12844 18.7926L9.99998 16.2318L14.8715 18.7926C15.1307 18.9288 15.4447 18.9061 15.6816 18.7341C15.9185 18.562 16.0371 18.2704 15.9877 17.9818L15.0577 12.5564L19 8.71487C19.2093 8.51048 19.2846 8.20502 19.1942 7.92677C19.1038 7.64851 18.8633 7.44564 18.5738 7.40333H18.5723Z" fill="#7F8592"/>
</svg>
