<svg width="20" height="20" viewBox="0 0 20 20" fill="none" xmlns="http://www.w3.org/2000/svg">
<g clip-path="url(#clip0)">
<path d="M16.981 0H2.137C1.731 0 1.401 0.33 1.401 0.736V18.382C1.401 18.79 1.731 19.118 2.137 19.118H16.98C17.386 19.118 17.716 18.79 17.716 18.382V0.736C17.717 0.329 17.386 0 16.981 0ZM16.245 17.646H2.873V1.473H16.244V17.646H16.245Z" fill="#8C919D"/>
<path d="M7.64004 4.66803H4.94604V7.36103H7.63904V4.66803H7.64004ZM7.31204 5.56203L6.11604 6.75803C6.08504 6.79003 6.03204 6.79003 6.00104 6.75803L5.27204 6.02603C5.24104 5.99403 5.24104 5.94203 5.27204 5.90903L5.44704 5.73703C5.47804 5.70403 5.53005 5.70403 5.56305 5.73703L6.06004 6.23603L7.02304 5.27303C7.05604 5.24103 7.10704 5.24103 7.14004 5.27303L7.31305 5.44703C7.34505 5.47803 7.34504 5.53003 7.31204 5.56203Z" fill="#8C919D"/>
<path d="M14.363 5.27399H8.20203V6.75499H14.363V5.27399Z" fill="#8C919D"/>
<path d="M7.64004 8.17999H4.94604V10.872H7.63904V8.17999H7.64004ZM7.31204 9.07299L6.11604 10.269C6.08504 10.301 6.03204 10.301 6.00104 10.269L5.27204 9.53699C5.24104 9.50499 5.24104 9.45299 5.27204 9.42099L5.44704 9.24799C5.47804 9.21599 5.53005 9.21599 5.56305 9.24799L6.06004 9.74699L7.02304 8.78399C7.05604 8.75199 7.10704 8.75199 7.14004 8.78399L7.31305 8.95699C7.34505 8.98899 7.34504 9.04099 7.31204 9.07299Z" fill="#8C919D"/>
<path d="M14.363 8.78497H8.20203V10.266H14.363V8.78497Z" fill="#8C919D"/>
<path d="M7.64002 11.769H4.94702V14.462H7.64002V11.769Z" fill="#8C919D"/>
<path d="M14.363 12.376H8.20203V13.856H14.363V12.376Z" fill="#8C919D"/>
</g>
<defs>
<clipPath id="clip0">
<rect width="19.118" height="19.118" fill="white"/>
</clipPath>
</defs>
</svg>
